<svg width="200" height="200" viewBox="0 0 200 200" fill="none" xmlns="http://www.w3.org/2000/svg">
<path d="M139.5 83.2C152.1 99 163.8 121.3 157 133.2C150.3 145.2 125.2 146.8 103.5 144.8C81.8 142.7 63.7 137.1 53.5 123.1C43.2 109.1 40.9 86.8 50 73.1C59 59.4 79.5 54.3 96.5 56.3C113.5 58.4 126.9 67.5 139.5 83.2Z" fill="#FF8C40"/>
<path d="M61.465 104.66H52.295L50.825 109H44.56L53.45 84.43H60.38L69.27 109H62.935L61.465 104.66ZM59.925 100.04L56.88 91.045L53.87 100.04H59.925ZM77.9607 92.235C78.5207 91.325 79.3257 90.59 80.3757 90.03C81.4257 89.47 82.6273 89.19 83.9807 89.19C85.5907 89.19 87.049 89.5983 88.3557 90.415C89.6623 91.2317 90.689 92.3983 91.4357 93.915C92.2057 95.4317 92.5907 97.1933 92.5907 99.2C92.5907 101.207 92.2057 102.98 91.4357 104.52C90.689 106.037 89.6623 107.215 88.3557 108.055C87.049 108.872 85.5907 109.28 83.9807 109.28C82.604 109.28 81.4023 109.012 80.3757 108.475C79.349 107.915 78.544 107.18 77.9607 106.27V109H71.9757V83.1H77.9607V92.235ZM86.5007 99.2C86.5007 97.7067 86.0807 96.54 85.2407 95.7C84.424 94.8367 83.409 94.405 82.1957 94.405C81.0057 94.405 79.9907 94.8367 79.1507 95.7C78.334 96.5633 77.9257 97.7417 77.9257 99.235C77.9257 100.728 78.334 101.907 79.1507 102.77C79.9907 103.633 81.0057 104.065 82.1957 104.065C83.3857 104.065 84.4007 103.633 85.2407 102.77C86.0807 101.883 86.5007 100.693 86.5007 99.2ZM104.621 109.28C102.707 109.28 100.981 108.872 99.4405 108.055C97.9239 107.238 96.7222 106.072 95.8355 104.555C94.9722 103.038 94.5405 101.265 94.5405 99.235C94.5405 97.2283 94.9839 95.4667 95.8705 93.95C96.7572 92.41 97.9705 91.2317 99.5105 90.415C101.051 89.5983 102.777 89.19 104.691 89.19C106.604 89.19 108.331 89.5983 109.871 90.415C111.411 91.2317 112.624 92.41 113.511 93.95C114.397 95.4667 114.841 97.2283 114.841 99.235C114.841 101.242 114.386 103.015 113.476 104.555C112.589 106.072 111.364 107.238 109.801 108.055C108.261 108.872 106.534 109.28 104.621 109.28ZM104.621 104.1C105.764 104.1 106.732 103.68 107.526 102.84C108.342 102 108.751 100.798 108.751 99.235C108.751 97.6717 108.354 96.47 107.561 95.63C106.791 94.79 105.834 94.37 104.691 94.37C103.524 94.37 102.556 94.79 101.786 95.63C101.016 96.4467 100.631 97.6483 100.631 99.235C100.631 100.798 101.004 102 101.751 102.84C102.521 103.68 103.477 104.1 104.621 104.1ZM137.301 89.47V109H131.316V106.34C130.709 107.203 129.881 107.903 128.831 108.44C127.804 108.953 126.661 109.21 125.401 109.21C123.907 109.21 122.589 108.883 121.446 108.23C120.302 107.553 119.416 106.585 118.786 105.325C118.156 104.065 117.841 102.583 117.841 100.88V89.47H123.791V100.075C123.791 101.382 124.129 102.397 124.806 103.12C125.482 103.843 126.392 104.205 127.536 104.205C128.702 104.205 129.624 103.843 130.301 103.12C130.977 102.397 131.316 101.382 131.316 100.075V89.47H137.301ZM152.485 103.925V109H149.44C147.27 109 145.578 108.475 144.365 107.425C143.151 106.352 142.545 104.613 142.545 102.21V94.44H140.165V89.47H142.545V84.71H148.53V89.47H152.45V94.44H148.53V102.28C148.53 102.863 148.67 103.283 148.95 103.54C149.23 103.797 149.696 103.925 150.35 103.925H152.485Z" fill="#1D2425"/>
</svg>
