<svg width="124" height="104" viewBox="0 0 124 104" fill="none" xmlns="http://www.w3.org/2000/svg">
<path fill-rule="evenodd" clip-rule="evenodd" d="M72.4445 1.20714C71.7778 1.85714 65.2222 24.7 57.7778 51.9071C43.7778 103.35 43.6667 104 48.8889 104C50 104 51.3334 103.443 52 102.793C52.6667 102.143 59.2222 79.3929 66.6667 52.1857C80.7778 0.65 80.8889 0 75.5556 0C74.4445 0 73.1111 0.557143 72.4445 1.20714ZM84.8889 29.1572C83.5556 32.1286 85.5556 34.1714 97.7778 42.3429C104.778 46.9857 110.667 51.2572 110.889 51.8143C111 52.2786 105.222 56.6429 97.8889 61.3786C90.5556 66.2071 84.3333 70.6643 84 71.3143C83 73.1714 85.3333 76.1429 87.6667 76.1429C89.8889 76.1429 122.111 55.7143 123.667 53.3929C124.111 52.65 124.111 51.4429 123.667 50.7C121.889 48.1 90.1111 27.8572 87.8889 27.8572C86.5556 27.8572 85.2222 28.4143 84.8889 29.1572ZM0 56.7357C0 55.6214 6.55555 50.7929 17.8889 43.2714C27.6667 36.8643 36.3333 31.5714 37.1111 31.5714C39.1111 31.5714 41.1111 33.6143 41.1111 35.75C41.1111 37.05 37.2222 40.2071 27.7778 46.3357C20.4444 51.1643 13.8889 55.5286 13.3333 56.1786C12.4444 57.1071 15.7778 59.7071 26.6667 66.8571C39.4444 75.2143 41.2222 76.7 40.8889 78.8357C40.1111 84.5929 33.5555 81.5286 4.77778 61.6571C2.11111 59.8929 0 57.6643 0 56.7357Z" fill="#9FD4D8"/>
</svg>
