<svg width="244" height="246" viewBox="0 0 244 246" fill="none" xmlns="http://www.w3.org/2000/svg">
<path d="M160.969 87.8778C179.684 102.919 206.971 119.678 207.971 136.438C208.971 153.197 183.685 169.957 155.541 185.284C127.254 200.611 96.2524 214.649 78.1088 204.622C60.1081 194.738 54.965 160.933 57.6794 136.008C60.5367 110.94 71.2514 94.8968 83.2519 81.2886C95.2524 67.8235 108.539 56.9369 120.253 58.0829C131.968 59.3721 142.254 72.8371 160.969 87.8778Z" fill="#FF8C40"/>
<path d="M59.1985 120.68C59.1985 118.253 59.7235 116.095 60.7735 114.205C61.8235 112.292 63.2818 110.81 65.1485 109.76C67.0385 108.687 69.1735 108.15 71.5535 108.15C74.4701 108.15 76.9668 108.92 79.0435 110.46C81.1201 112 82.5085 114.1 83.2085 116.76H76.6285C76.1385 115.733 75.4385 114.952 74.5285 114.415C73.6418 113.878 72.6268 113.61 71.4835 113.61C69.6401 113.61 68.1468 114.252 67.0035 115.535C65.8601 116.818 65.2885 118.533 65.2885 120.68C65.2885 122.827 65.8601 124.542 67.0035 125.825C68.1468 127.108 69.6401 127.75 71.4835 127.75C72.6268 127.75 73.6418 127.482 74.5285 126.945C75.4385 126.408 76.1385 125.627 76.6285 124.6H83.2085C82.5085 127.26 81.1201 129.36 79.0435 130.9C76.9668 132.417 74.4701 133.175 71.5535 133.175C69.1735 133.175 67.0385 132.65 65.1485 131.6C63.2818 130.527 61.8235 129.045 60.7735 127.155C59.7235 125.265 59.1985 123.107 59.1985 120.68ZM95.7636 133.28C93.8503 133.28 92.1236 132.872 90.5836 132.055C89.0669 131.238 87.8653 130.072 86.9786 128.555C86.1153 127.038 85.6836 125.265 85.6836 123.235C85.6836 121.228 86.1269 119.467 87.0136 117.95C87.9003 116.41 89.1136 115.232 90.6536 114.415C92.1936 113.598 93.9203 113.19 95.8336 113.19C97.7469 113.19 99.4736 113.598 101.014 114.415C102.554 115.232 103.767 116.41 104.654 117.95C105.54 119.467 105.984 121.228 105.984 123.235C105.984 125.242 105.529 127.015 104.619 128.555C103.732 130.072 102.507 131.238 100.944 132.055C99.4036 132.872 97.6769 133.28 95.7636 133.28ZM95.7636 128.1C96.9069 128.1 97.8753 127.68 98.6686 126.84C99.4853 126 99.8936 124.798 99.8936 123.235C99.8936 121.672 99.4969 120.47 98.7036 119.63C97.9336 118.79 96.9769 118.37 95.8336 118.37C94.6669 118.37 93.6986 118.79 92.9286 119.63C92.1586 120.447 91.7736 121.648 91.7736 123.235C91.7736 124.798 92.1469 126 92.8936 126.84C93.6636 127.68 94.6203 128.1 95.7636 128.1ZM121.059 113.26C123.345 113.26 125.165 114.007 126.519 115.5C127.895 116.97 128.584 119 128.584 121.59V133H122.634V122.395C122.634 121.088 122.295 120.073 121.619 119.35C120.942 118.627 120.032 118.265 118.889 118.265C117.745 118.265 116.835 118.627 116.159 119.35C115.482 120.073 115.144 121.088 115.144 122.395V133H109.159V113.47H115.144V116.06C115.75 115.197 116.567 114.52 117.594 114.03C118.62 113.517 119.775 113.26 121.059 113.26ZM143.628 127.925V133H140.583C138.413 133 136.721 132.475 135.508 131.425C134.294 130.352 133.688 128.613 133.688 126.21V118.44H131.308V113.47H133.688V108.71H139.673V113.47H143.593V118.44H139.673V126.28C139.673 126.863 139.813 127.283 140.093 127.54C140.373 127.797 140.839 127.925 141.493 127.925H143.628ZM145.772 123.2C145.772 121.193 146.145 119.432 146.892 117.915C147.662 116.398 148.7 115.232 150.007 114.415C151.313 113.598 152.772 113.19 154.382 113.19C155.758 113.19 156.96 113.47 157.987 114.03C159.037 114.59 159.842 115.325 160.402 116.235V113.47H166.387V133H160.402V130.235C159.818 131.145 159.002 131.88 157.952 132.44C156.925 133 155.723 133.28 154.347 133.28C152.76 133.28 151.313 132.872 150.007 132.055C148.7 131.215 147.662 130.037 146.892 128.52C146.145 126.98 145.772 125.207 145.772 123.2ZM160.402 123.235C160.402 121.742 159.982 120.563 159.142 119.7C158.325 118.837 157.322 118.405 156.132 118.405C154.942 118.405 153.927 118.837 153.087 119.7C152.27 120.54 151.862 121.707 151.862 123.2C151.862 124.693 152.27 125.883 153.087 126.77C153.927 127.633 154.942 128.065 156.132 128.065C157.322 128.065 158.325 127.633 159.142 126.77C159.982 125.907 160.402 124.728 160.402 123.235ZM169.526 123.235C169.526 121.205 169.935 119.432 170.751 117.915C171.591 116.398 172.746 115.232 174.216 114.415C175.71 113.598 177.413 113.19 179.326 113.19C181.776 113.19 183.818 113.832 185.451 115.115C187.108 116.398 188.193 118.207 188.706 120.54H182.336C181.8 119.047 180.761 118.3 179.221 118.3C178.125 118.3 177.25 118.732 176.596 119.595C175.943 120.435 175.616 121.648 175.616 123.235C175.616 124.822 175.943 126.047 176.596 126.91C177.25 127.75 178.125 128.17 179.221 128.17C180.761 128.17 181.8 127.423 182.336 125.93H188.706C188.193 128.217 187.108 130.013 185.451 131.32C183.795 132.627 181.753 133.28 179.326 133.28C177.413 133.28 175.71 132.872 174.216 132.055C172.746 131.238 171.591 130.072 170.751 128.555C169.935 127.038 169.526 125.265 169.526 123.235ZM202.793 127.925V133H199.748C197.578 133 195.886 132.475 194.673 131.425C193.459 130.352 192.853 128.613 192.853 126.21V118.44H190.473V113.47H192.853V108.71H198.838V113.47H202.758V118.44H198.838V126.28C198.838 126.863 198.978 127.283 199.258 127.54C199.538 127.797 200.004 127.925 200.658 127.925H202.793ZM128.781 166.26C131.208 166.26 133.133 166.995 134.556 168.465C136.003 169.935 136.726 171.977 136.726 174.59V186H130.776V175.395C130.776 174.135 130.438 173.167 129.761 172.49C129.108 171.79 128.198 171.44 127.031 171.44C125.864 171.44 124.943 171.79 124.266 172.49C123.613 173.167 123.286 174.135 123.286 175.395V186H117.336V175.395C117.336 174.135 116.998 173.167 116.321 172.49C115.668 171.79 114.758 171.44 113.591 171.44C112.424 171.44 111.503 171.79 110.826 172.49C110.173 173.167 109.846 174.135 109.846 175.395V186H103.861V166.47H109.846V168.92C110.453 168.103 111.246 167.462 112.226 166.995C113.206 166.505 114.314 166.26 115.551 166.26C117.021 166.26 118.328 166.575 119.471 167.205C120.638 167.835 121.548 168.733 122.201 169.9C122.878 168.827 123.799 167.952 124.966 167.275C126.133 166.598 127.404 166.26 128.781 166.26ZM159.322 175.92C159.322 176.48 159.287 177.063 159.217 177.67H145.672C145.765 178.883 146.15 179.817 146.827 180.47C147.527 181.1 148.378 181.415 149.382 181.415C150.875 181.415 151.913 180.785 152.497 179.525H158.867C158.54 180.808 157.945 181.963 157.082 182.99C156.242 184.017 155.18 184.822 153.897 185.405C152.613 185.988 151.178 186.28 149.592 186.28C147.678 186.28 145.975 185.872 144.482 185.055C142.988 184.238 141.822 183.072 140.982 181.555C140.142 180.038 139.722 178.265 139.722 176.235C139.722 174.205 140.13 172.432 140.947 170.915C141.787 169.398 142.953 168.232 144.447 167.415C145.94 166.598 147.655 166.19 149.592 166.19C151.482 166.19 153.162 166.587 154.632 167.38C156.102 168.173 157.245 169.305 158.062 170.775C158.902 172.245 159.322 173.96 159.322 175.92ZM153.197 174.345C153.197 173.318 152.847 172.502 152.147 171.895C151.447 171.288 150.572 170.985 149.522 170.985C148.518 170.985 147.667 171.277 146.967 171.86C146.29 172.443 145.87 173.272 145.707 174.345H153.197Z" fill="#1D2425"/>
</svg>
