<svg width="128" height="129" viewBox="0 0 128 129" fill="none" xmlns="http://www.w3.org/2000/svg">
<g clip-path="url(#clip0_108_30)">
<path d="M1.2 1.97353C0.4 2.77353 0 6.47353 0 12.4735C0 21.5735 0.1 21.8735 2.6 22.7735C5.8 24.0735 16.1 24.0735 19.3 22.8735C20.9 22.2735 22.1 20.7735 22.5 18.8735L23.2 15.7735H30.2H37.3L31.3 21.1735C24.3 27.5735 18.6 37.5735 16.6 47.0735C15.6 51.9735 14.5 54.0735 11.6 56.9735C8.6 59.9735 8 61.2735 8 64.7735C8 68.1735 8.6 69.5735 11.4 72.3735C14.2 75.1735 15.6 75.7735 19 75.7735C22.4 75.7735 23.8 75.1735 26.6 72.3735C29.4 69.5735 30 68.1735 30 64.7735C30 61.2735 29.4 59.9735 26.4 56.9735C23.3 53.8735 22.9 53.0735 23.5 49.6735C24.5 44.1735 29.3 34.5735 33.7 29.6735C40.3 22.3735 53 15.3735 54.7 18.1735C58.4 24.0735 69.6 24.0735 73.3 18.1735C75 15.3735 87.7 22.3735 94.3 29.6735C98.7 34.5735 103.5 44.1735 104.5 49.6735C105.1 53.0735 104.7 53.8735 101.6 56.9735C98.6 59.9735 98 61.2735 98 64.7735C98 70.7735 103 75.7735 109 75.7735C112.4 75.7735 113.8 75.1735 116.6 72.3735C119.4 69.5735 120 68.1735 120 64.7735C120 61.2735 119.4 59.9735 116.4 56.9735C113.5 54.0735 112.4 51.9735 111.4 47.1735C109.5 37.8735 104.6 29.1735 97.4 21.9735L91 15.7735H97.9C104.8 15.7735 104.8 15.7735 105.5 18.8735C105.9 20.7735 107.1 22.2735 108.7 22.8735C111.9 24.0735 122.2 24.0735 125.4 22.7735C127.9 21.8735 128 21.5735 128 12.3735C128 5.57353 127.6 2.67353 126.6 1.87353C125.7 1.07353 121.9 0.773528 115.9 0.973528L106.6 1.27353L105.6 4.47353L104.7 7.77353H89.9H75.2L72.2 4.87353C67 -0.426472 61 -0.426472 55.8 4.87353L52.8 7.77353H38.1H23.3L22.4 4.47353L21.4 1.27353L11.9 0.973528C5.4 0.773528 2.1 1.07353 1.2 1.97353ZM15 12.2735C15 15.5735 14.8 15.7735 11.5 15.7735C8.2 15.7735 8 15.5735 8 12.2735C8 8.97353 8.2 8.77353 11.5 8.77353C14.8 8.77353 15 8.97353 15 12.2735ZM66.9 10.1735C68.5 12.1735 66.6 15.7735 64 15.7735C61.4 15.7735 59.5 12.1735 61.1 10.1735C61.7 9.37353 63 8.77353 64 8.77353C65 8.77353 66.3 9.37353 66.9 10.1735ZM120 12.2735C120 15.5735 119.8 15.7735 116.5 15.7735C113.2 15.7735 113 15.5735 113 12.2735C113 8.97353 113.2 8.77353 116.5 8.77353C119.8 8.77353 120 8.97353 120 12.2735ZM21.4 62.3735C22.3 63.1735 23 64.2735 23 64.7735C23 65.8735 20.1 68.7735 19 68.7735C17.9 68.7735 15 65.8735 15 64.7735C15 63.6735 17.9 60.7735 19 60.7735C19.5 60.7735 20.6 61.4735 21.4 62.3735ZM111.4 62.3735C112.3 63.1735 113 64.2735 113 64.7735C113 65.8735 110.1 68.7735 109 68.7735C107.9 68.7735 105 65.8735 105 64.7735C105 64.2735 105.7 63.1735 106.6 62.3735C107.4 61.4735 108.5 60.7735 109 60.7735C109.5 60.7735 110.6 61.4735 111.4 62.3735Z" fill="#9FD4D8"/>
<path d="M61.8 31.9735C60 33.4735 30 78.3735 30 79.6735C30 80.1735 31.7 82.6735 33.9 85.3735C38.8 91.5735 41.6 97.1735 43.5 104.374L44.9 109.974L41.9 113.774C38.4 118.074 37 124.874 39 127.274C40.9 129.474 87.1 129.474 89 127.274C91 124.874 89.6 118.074 86.1 113.774L83.1 109.974L84.5 104.374C86.4 97.1735 89.2 91.5735 94.1 85.3735C96.3 82.6735 98 80.1735 98 79.6735C98 78.3735 68 33.4735 66.2 31.9735C65.3 31.3735 64.3 30.7735 64 30.7735C63.7 30.7735 62.7 31.3735 61.8 31.9735ZM56.5 72.0735C53.6 74.9735 53 76.2735 53 79.7735C53 83.1735 53.6 84.5735 56.4 87.3735C59.2 90.1735 60.6 90.7735 64 90.7735C70 90.7735 75 85.7735 75 79.7735C75 76.2735 74.4 74.9735 71.5 72.0735L67.9 68.4735L68.2 58.4735L68.5 48.4735L78.9 64.0735L89.2 79.6735L86.6 82.8735C83.1 87.0735 79.6 94.0735 77.6 100.774L76 106.274H64H52L50.4 100.774C48.4 94.0735 44.9 87.0735 41.4 82.8735L38.8 79.6735L49.1 64.0735L59.5 48.4735L59.8 58.4735L60.1 68.4735L56.5 72.0735ZM66.4 77.3735C67.3 78.1735 68 79.2735 68 79.7735C68 80.8735 65.1 83.7735 64 83.7735C62.9 83.7735 60 80.8735 60 79.7735C60 79.2735 60.7 78.1735 61.6 77.3735C62.4 76.4735 63.5 75.7735 64 75.7735C64.5 75.7735 65.6 76.4735 66.4 77.3735ZM76.4 114.974C77.8 115.574 79.7 117.174 80.5 118.474L82 120.774H64H45.9L47.4 118.574C48.3 117.374 50 115.774 51.2 115.074C54.1 113.474 73 113.374 76.4 114.974Z" fill="#9FD4D8"/>
</g>
<defs>
<clipPath id="clip0_108_30">
<rect width="128" height="128" fill="white" transform="translate(0 0.773514)"/>
</clipPath>
</defs>
</svg>
