<svg width="128" height="128" viewBox="0 0 128 128" fill="none" xmlns="http://www.w3.org/2000/svg">
<mask id="mask0_108_17" style="mask-type:alpha" maskUnits="userSpaceOnUse" x="0" y="0" width="128" height="128">
<path d="M16.5 20.5C14 22.9 14 23 14 42.5V62H10.5C8 62 6.1 62.8 4.5 64.5C2 66.9 2 67.1 2 86C2 104.9 2 105.1 4.5 107.5C6.8 109.9 7.4 110 20 110C32.6 110 33.2 109.9 35.5 107.5C37.4 105.7 38 104 38 100.5V96H46.5C54.2 96 55 96.2 55 97.9C55 99.5 54.2 99.9 50.8 100.2L46.5 100.5V105V109.5L83.8 109.8L121.1 110L123.5 107.6L126 105.1V76V46.9L123.5 44.5C121.9 42.8 120 42 117.5 42H114V32.5C114 23.7 113.8 22.7 111.5 20.5L109.1 18H64H18.9L16.5 20.5ZM108.8 23.2C109.6 24 110 27.7 110 33.2V42H94.5C79.3 42 78.9 42.1 76.5 44.5C74 46.9 74 47.2 74 64.5V82H56H38V74.5C38 67.8 37.7 66.6 35.5 64.5C33.4 62.3 32.2 62 25.5 62H18V43.2C18 29.9 18.4 24 19.2 23.2C20.9 21.5 107.1 21.5 108.8 23.2ZM120.8 47.2C122.5 48.9 122.5 103.1 120.8 104.8C119.1 106.5 80.9 106.5 79.2 104.8C77.5 103.1 77.5 48.9 79.2 47.2C80.9 45.5 119.1 45.5 120.8 47.2ZM13.7 69C14.8 71.8 15.2 72 20 72C24.8 72 25.2 71.8 26.3 69C27.5 65.8 30.6 65 32.8 67.2C34.5 68.9 34.5 103.1 32.8 104.8C31.1 106.5 8.9 106.5 7.2 104.8C5.5 103.1 5.5 68.9 7.2 67.2C9.4 65 12.5 65.8 13.7 69ZM23 67C23 67.5 21.7 68 20 68C18.4 68 17 67.5 17 67C17 66.4 18.4 66 20 66C21.7 66 23 66.4 23 67ZM74 89V92H56H38V89V86H56H74V89ZM69 98C69 99.7 68.3 100 64 100C59.7 100 59 99.7 59 98C59 96.3 59.7 96 64 96C68.3 96 69 96.3 69 98ZM73.7 99.2C73.4 99.9 73.2 99.4 73.2 98C73.2 96.6 73.4 96.1 73.7 96.7C73.9 97.4 73.9 98.6 73.7 99.2ZM74.5 105C74.9 105.6 70.7 106 62.6 106C54.9 106 50 105.6 50 105C50 104.4 54.6 104 61.9 104C68.8 104 74.1 104.4 74.5 105Z" fill="black"/>
<path d="M80.5 49.2C80.2 50 80.1 61.1 80.2 74L80.5 97.5H100H119.5V73V48.5L100.2 48.2C85.2 48 80.8 48.2 80.5 49.2ZM116 73V94H100H84V73V52H100H116V73Z" fill="black"/>
<path d="M96.4 101.1C95.4 102.8 97.7 104.7 99.1 103.3C100.3 102.1 99.5 100 98 100C97.5 100 96.8 100.5 96.4 101.1Z" fill="black"/>
<path d="M8.5 101C7.3 102.9 9.5 104.2 13.6 103.8C16.3 103.6 17.5 103 17.5 102C17.5 100.1 9.6 99.3 8.5 101Z" fill="black"/>
<path d="M20.5 101C20.1 101.7 20.2 102.6 20.8 103.2C22.2 104.6 25.5 103.8 25.5 102C25.5 100.2 21.5 99.4 20.5 101Z" fill="black"/>
</mask>
<g mask="url(#mask0_108_17)">
<path d="M0 18H128V110H0V18Z" fill="#9FD4D8"/>
</g>
</svg>
