<svg width="200" height="200" viewBox="0 0 200 200" fill="none" xmlns="http://www.w3.org/2000/svg">
<g clip-path="url(#clip0_110_5)" filter="url(#filter0_d_110_5)">
<path d="M146.5 39.6C161.6 47 176.1 58.8 181.8 74C187.4 89.2 184.4 107.8 176.8 123.1C169.3 138.4 157.3 150.4 143.7 160.4C130.2 170.4 115.1 178.5 97.8 181.6C80.4 184.7 60.8 182.8 51.4 171.4C42 160 45 136.3 43 119C41 101.7 33.9 90.3 35.5 76.5C37.1 62.7 45.2 49.3 57 40.9C68.7 32.5 84.4 29.6 100 29.5C115.7 29.5 131.4 32.3 146.5 39.6Z" fill="#FF8C40"/>
<path d="M59.895 101.34C59.895 102.763 59.5683 104.07 58.915 105.26C58.2617 106.427 57.2583 107.372 55.905 108.095C54.5517 108.818 52.8717 109.18 50.865 109.18H47.155V118H41.17V93.43H50.865C52.825 93.43 54.4817 93.7683 55.835 94.445C57.1883 95.1217 58.2033 96.055 58.88 97.245C59.5567 98.435 59.895 99.8 59.895 101.34ZM50.41 104.42C51.5533 104.42 52.405 104.152 52.965 103.615C53.525 103.078 53.805 102.32 53.805 101.34C53.805 100.36 53.525 99.6017 52.965 99.065C52.405 98.5283 51.5533 98.26 50.41 98.26H47.155V104.42H50.41ZM68.9958 101.725C69.6958 100.652 70.5708 99.8117 71.6208 99.205C72.6708 98.575 73.8375 98.26 75.1208 98.26V104.595H73.4758C71.9825 104.595 70.8625 104.922 70.1158 105.575C69.3692 106.205 68.9958 107.325 68.9958 108.935V118H63.0108V98.47H68.9958V101.725ZM86.8715 118.28C84.9582 118.28 83.2315 117.872 81.6915 117.055C80.1749 116.238 78.9732 115.072 78.0865 113.555C77.2232 112.038 76.7915 110.265 76.7915 108.235C76.7915 106.228 77.2349 104.467 78.1215 102.95C79.0082 101.41 80.2215 100.232 81.7615 99.415C83.3015 98.5983 85.0282 98.19 86.9415 98.19C88.8549 98.19 90.5815 98.5983 92.1215 99.415C93.6615 100.232 94.8749 101.41 95.7615 102.95C96.6482 104.467 97.0915 106.228 97.0915 108.235C97.0915 110.242 96.6365 112.015 95.7265 113.555C94.8399 115.072 93.6149 116.238 92.0515 117.055C90.5115 117.872 88.7849 118.28 86.8715 118.28ZM86.8715 113.1C88.0149 113.1 88.9832 112.68 89.7765 111.84C90.5932 111 91.0015 109.798 91.0015 108.235C91.0015 106.672 90.6049 105.47 89.8115 104.63C89.0415 103.79 88.0849 103.37 86.9415 103.37C85.7749 103.37 84.8065 103.79 84.0365 104.63C83.2665 105.447 82.8815 106.648 82.8815 108.235C82.8815 109.798 83.2549 111 84.0015 111.84C84.7715 112.68 85.7282 113.1 86.8715 113.1ZM103.242 96.44C102.192 96.44 101.328 96.1367 100.652 95.53C99.9983 94.9 99.6717 94.13 99.6717 93.22C99.6717 92.2867 99.9983 91.5167 100.652 90.91C101.328 90.28 102.192 89.965 103.242 89.965C104.268 89.965 105.108 90.28 105.762 90.91C106.438 91.5167 106.777 92.2867 106.777 93.22C106.777 94.13 106.438 94.9 105.762 95.53C105.108 96.1367 104.268 96.44 103.242 96.44ZM106.252 120.52C106.252 122.923 105.645 124.65 104.432 125.7C103.218 126.773 101.527 127.31 99.3567 127.31H97.0117V122.235H98.4467C99.1 122.235 99.5667 122.107 99.8467 121.85C100.127 121.593 100.267 121.173 100.267 120.59V98.47H106.252V120.52ZM128.965 107.92C128.965 108.48 128.93 109.063 128.86 109.67H115.315C115.408 110.883 115.793 111.817 116.47 112.47C117.17 113.1 118.021 113.415 119.025 113.415C120.518 113.415 121.556 112.785 122.14 111.525H128.51C128.183 112.808 127.588 113.963 126.725 114.99C125.885 116.017 124.823 116.822 123.54 117.405C122.256 117.988 120.821 118.28 119.235 118.28C117.321 118.28 115.618 117.872 114.125 117.055C112.631 116.238 111.465 115.072 110.625 113.555C109.785 112.038 109.365 110.265 109.365 108.235C109.365 106.205 109.773 104.432 110.59 102.915C111.43 101.398 112.596 100.232 114.09 99.415C115.583 98.5983 117.298 98.19 119.235 98.19C121.125 98.19 122.805 98.5867 124.275 99.38C125.745 100.173 126.888 101.305 127.705 102.775C128.545 104.245 128.965 105.96 128.965 107.92ZM122.84 106.345C122.84 105.318 122.49 104.502 121.79 103.895C121.09 103.288 120.215 102.985 119.165 102.985C118.161 102.985 117.31 103.277 116.61 103.86C115.933 104.443 115.513 105.272 115.35 106.345H122.84ZM130.932 108.235C130.932 106.205 131.34 104.432 132.157 102.915C132.997 101.398 134.152 100.232 135.622 99.415C137.115 98.5983 138.819 98.19 140.732 98.19C143.182 98.19 145.224 98.8317 146.857 100.115C148.514 101.398 149.599 103.207 150.112 105.54H143.742C143.205 104.047 142.167 103.3 140.627 103.3C139.53 103.3 138.655 103.732 138.002 104.595C137.349 105.435 137.022 106.648 137.022 108.235C137.022 109.822 137.349 111.047 138.002 111.91C138.655 112.75 139.53 113.17 140.627 113.17C142.167 113.17 143.205 112.423 143.742 110.93H150.112C149.599 113.217 148.514 115.013 146.857 116.32C145.2 117.627 143.159 118.28 140.732 118.28C138.819 118.28 137.115 117.872 135.622 117.055C134.152 116.238 132.997 115.072 132.157 113.555C131.34 112.038 130.932 110.265 130.932 108.235ZM164.199 112.925V118H161.154C158.984 118 157.292 117.475 156.079 116.425C154.865 115.352 154.259 113.613 154.259 111.21V103.44H151.879V98.47H154.259V93.71H160.244V98.47H164.164V103.44H160.244V111.28C160.244 111.863 160.384 112.283 160.664 112.54C160.944 112.797 161.41 112.925 162.064 112.925H164.199ZM175.477 118.28C173.774 118.28 172.257 117.988 170.927 117.405C169.597 116.822 168.547 116.028 167.777 115.025C167.007 113.998 166.576 112.855 166.482 111.595H172.397C172.467 112.272 172.782 112.82 173.342 113.24C173.902 113.66 174.591 113.87 175.407 113.87C176.154 113.87 176.726 113.73 177.122 113.45C177.542 113.147 177.752 112.762 177.752 112.295C177.752 111.735 177.461 111.327 176.877 111.07C176.294 110.79 175.349 110.487 174.042 110.16C172.642 109.833 171.476 109.495 170.542 109.145C169.609 108.772 168.804 108.2 168.127 107.43C167.451 106.637 167.112 105.575 167.112 104.245C167.112 103.125 167.416 102.11 168.022 101.2C168.652 100.267 169.562 99.5317 170.752 98.995C171.966 98.4583 173.401 98.19 175.057 98.19C177.507 98.19 179.432 98.7967 180.832 100.01C182.256 101.223 183.072 102.833 183.282 104.84H177.752C177.659 104.163 177.356 103.627 176.842 103.23C176.352 102.833 175.699 102.635 174.882 102.635C174.182 102.635 173.646 102.775 173.272 103.055C172.899 103.312 172.712 103.673 172.712 104.14C172.712 104.7 173.004 105.12 173.587 105.4C174.194 105.68 175.127 105.96 176.387 106.24C177.834 106.613 179.012 106.987 179.922 107.36C180.832 107.71 181.626 108.293 182.302 109.11C183.002 109.903 183.364 110.977 183.387 112.33C183.387 113.473 183.061 114.5 182.407 115.41C181.777 116.297 180.856 116.997 179.642 117.51C178.452 118.023 177.064 118.28 175.477 118.28Z" fill="#1D2425"/>
</g>
<defs>
<filter id="filter0_d_110_5" x="-4" y="0" width="208" height="208" filterUnits="userSpaceOnUse" color-interpolation-filters="sRGB">
<feFlood flood-opacity="0" result="BackgroundImageFix"/>
<feColorMatrix in="SourceAlpha" type="matrix" values="0 0 0 0 0 0 0 0 0 0 0 0 0 0 0 0 0 0 127 0" result="hardAlpha"/>
<feOffset dy="4"/>
<feGaussianBlur stdDeviation="2"/>
<feComposite in2="hardAlpha" operator="out"/>
<feColorMatrix type="matrix" values="0 0 0 0 0 0 0 0 0 0 0 0 0 0 0 0 0 0 0.25 0"/>
<feBlend mode="normal" in2="BackgroundImageFix" result="effect1_dropShadow_110_5"/>
<feBlend mode="normal" in="SourceGraphic" in2="effect1_dropShadow_110_5" result="shape"/>
</filter>
<clipPath id="clip0_110_5">
<rect width="200" height="200" fill="white"/>
</clipPath>
</defs>
</svg>
