<svg width="200" height="200" viewBox="0 0 200 200" fill="none" xmlns="http://www.w3.org/2000/svg">
<g clip-path="url(#clip0_112_5)">
<path d="M137.706 66.0269C149.543 78.1148 157.224 98.1948 154.422 117.076C151.621 136.057 138.429 154.039 122.978 159.234C107.617 164.528 89.9975 157.136 75.721 147.446C61.3542 137.855 50.3305 125.967 43.7344 108.784C37.1383 91.5014 34.9697 69.0239 44.0959 57.6353C53.222 46.2467 73.6428 45.947 91.8047 47.945C109.967 49.8431 125.869 53.939 137.706 66.0269Z" fill="#FF8C40"/>
<path d="M64.06 114.245C62.2633 114.245 60.6533 113.953 59.23 113.37C57.8067 112.787 56.6633 111.923 55.8 110.78C54.96 109.637 54.5167 108.26 54.47 106.65H60.84C60.9333 107.56 61.2483 108.26 61.785 108.75C62.3217 109.217 63.0217 109.45 63.885 109.45C64.7717 109.45 65.4717 109.252 65.985 108.855C66.4983 108.435 66.755 107.863 66.755 107.14C66.755 106.533 66.545 106.032 66.125 105.635C65.7283 105.238 65.2267 104.912 64.62 104.655C64.0367 104.398 63.1967 104.107 62.1 103.78C60.5133 103.29 59.2183 102.8 58.215 102.31C57.2117 101.82 56.3483 101.097 55.625 100.14C54.9017 99.1833 54.54 97.935 54.54 96.395C54.54 94.1083 55.3683 92.3233 57.025 91.04C58.6817 89.7333 60.84 89.08 63.5 89.08C66.2067 89.08 68.3883 89.7333 70.045 91.04C71.7017 92.3233 72.5883 94.12 72.705 96.43H66.23C66.1833 95.6367 65.8917 95.0183 65.355 94.575C64.8183 94.1083 64.13 93.875 63.29 93.875C62.5667 93.875 61.9833 94.0733 61.54 94.47C61.0967 94.8433 60.875 95.3917 60.875 96.115C60.875 96.9083 61.2483 97.5267 61.995 97.97C62.7417 98.4133 63.9083 98.8917 65.495 99.405C67.0817 99.9417 68.365 100.455 69.345 100.945C70.3483 101.435 71.2117 102.147 71.935 103.08C72.6583 104.013 73.02 105.215 73.02 106.685C73.02 108.085 72.6583 109.357 71.935 110.5C71.235 111.643 70.2083 112.553 68.855 113.23C67.5017 113.907 65.9033 114.245 64.06 114.245ZM88.6382 114L82.6882 105.81V114H76.7032V88.1H82.6882V102.415L88.6032 94.47H95.9882L87.8682 104.27L96.0582 114H88.6382ZM101.349 92.44C100.299 92.44 99.4356 92.1367 98.7589 91.53C98.1056 90.9 97.7789 90.13 97.7789 89.22C97.7789 88.2867 98.1056 87.5167 98.7589 86.91C99.4356 86.28 100.299 85.965 101.349 85.965C102.376 85.965 103.216 86.28 103.869 86.91C104.546 87.5167 104.884 88.2867 104.884 89.22C104.884 90.13 104.546 90.9 103.869 91.53C103.216 92.1367 102.376 92.44 101.349 92.44ZM104.324 94.47V114H98.3389V94.47H104.324ZM114.646 88.1V114H108.661V88.1H114.646ZM124.968 88.1V114H118.983V88.1H124.968ZM137.251 114.28C135.547 114.28 134.031 113.988 132.701 113.405C131.371 112.822 130.321 112.028 129.551 111.025C128.781 109.998 128.349 108.855 128.256 107.595H134.171C134.241 108.272 134.556 108.82 135.116 109.24C135.676 109.66 136.364 109.87 137.181 109.87C137.927 109.87 138.499 109.73 138.896 109.45C139.316 109.147 139.526 108.762 139.526 108.295C139.526 107.735 139.234 107.327 138.651 107.07C138.067 106.79 137.122 106.487 135.816 106.16C134.416 105.833 133.249 105.495 132.316 105.145C131.382 104.772 130.577 104.2 129.901 103.43C129.224 102.637 128.886 101.575 128.886 100.245C128.886 99.125 129.189 98.11 129.796 97.2C130.426 96.2667 131.336 95.5317 132.526 94.995C133.739 94.4583 135.174 94.19 136.831 94.19C139.281 94.19 141.206 94.7967 142.606 96.01C144.029 97.2233 144.846 98.8333 145.056 100.84H139.526C139.432 100.163 139.129 99.6267 138.616 99.23C138.126 98.8333 137.472 98.635 136.656 98.635C135.956 98.635 135.419 98.775 135.046 99.055C134.672 99.3117 134.486 99.6733 134.486 100.14C134.486 100.7 134.777 101.12 135.361 101.4C135.967 101.68 136.901 101.96 138.161 102.24C139.607 102.613 140.786 102.987 141.696 103.36C142.606 103.71 143.399 104.293 144.076 105.11C144.776 105.903 145.137 106.977 145.161 108.33C145.161 109.473 144.834 110.5 144.181 111.41C143.551 112.297 142.629 112.997 141.416 113.51C140.226 114.023 138.837 114.28 137.251 114.28Z" fill="#1D2425"/>
</g>
<defs>
<clipPath id="clip0_112_5">
<rect width="200" height="200" fill="white"/>
</clipPath>
</defs>
</svg>
